<?xml version="1.0" standalone="no"?>
<!DOCTYPE svg PUBLIC "-//W3C//DTD SVG 20010904//EN"
 "http://www.w3.org/TR/2001/REC-SVG-20010904/DTD/svg10.dtd">
<svg version="1.0" xmlns="http://www.w3.org/2000/svg"
 width="300.000000pt" height="276.000000pt" viewBox="0 0 300.000000 276.000000"
 preserveAspectRatio="xMidYMid meet">
<metadata>
Created by potrace 1.10, written by Peter Selinger 2001-2011
</metadata>
<g transform="translate(0.000000,276.000000) scale(0.100000,-0.100000)"
fill="#000000" stroke="none">
<path d="M1907 2359 c-79 -41 -111 -115 -121 -281 -7 -96 -34 -182 -72 -227
-34 -41 -112 -71 -187 -73 -53 -2 -71 2 -109 25 -84 49 -114 118 -127 291 -10
118 -24 164 -67 215 -34 40 -74 61 -118 61 -117 0 -181 -88 -196 -268 -5 -59
-16 -129 -24 -157 -30 -98 -112 -164 -206 -165 -126 -1 -214 -105 -214 -255 0
-38 6 -88 14 -110 54 -161 203 -205 298 -89 42 51 61 111 71 230 20 213 88
294 247 294 165 -1 236 -91 253 -324 10 -128 27 -172 90 -229 69 -62 134 -62
203 1 60 54 79 106 89 239 9 133 27 196 74 251 86 100 260 101 349 2 43 -48
64 -114 77 -249 17 -185 78 -271 191 -271 173 0 254 294 123 447 -39 46 -90
69 -153 72 -93 3 -163 57 -197 152 -9 24 -20 91 -25 149 -12 155 -41 220 -118
267 -45 28 -95 29 -145 2z m-720 -58 c52 -51 61 -69 68 -142 12 -133 27 -229
36 -235 5 -3 9 -12 9 -20 0 -28 61 -101 98 -119 21 -10 45 -22 54 -26 10 -5
46 -9 80 -9 35 0 75 -6 91 -14 37 -20 35 -10 -3 13 l-31 18 38 6 c22 4 49 16
61 27 12 12 27 18 32 15 6 -3 14 5 20 19 5 14 15 26 21 26 7 0 9 3 6 7 -4 3
-1 13 5 21 7 8 13 24 13 35 3 41 18 107 24 107 3 0 6 24 5 53 0 28 6 69 13 91
7 21 11 42 8 46 -7 11 20 61 28 53 4 -3 7 4 7 16 0 12 4 20 9 16 5 -3 22 6 37
20 33 31 101 33 122 3 7 -10 20 -18 27 -18 19 0 54 -77 61 -135 4 -24 9 -43
13 -41 3 2 6 -30 6 -72 0 -43 2 -88 4 -102 4 -22 5 -23 12 -5 6 16 8 13 8 -14
1 -19 11 -48 24 -65 13 -17 26 -39 30 -48 3 -10 13 -18 22 -18 8 0 15 -4 15
-10 0 -5 7 -7 15 -4 18 7 20 -12 3 -20 -7 -2 -4 -4 7 -3 75 5 235 -42 235 -70
0 -7 4 -13 8 -13 19 0 46 -88 47 -155 1 -65 -24 -174 -39 -167 -9 3 -43 -32
-39 -40 2 -5 -5 -8 -17 -8 -12 0 -19 -4 -15 -9 3 -6 -16 -9 -47 -9 -39 1 -56
6 -66 20 -7 10 -18 15 -24 12 -6 -4 -8 -2 -4 4 3 6 2 13 -4 17 -6 4 -7 11 -4
17 5 8 1 9 -10 5 -12 -5 -16 -3 -14 5 3 7 -1 19 -9 26 -7 7 -13 25 -13 38 0
14 -4 23 -9 20 -5 -4 -4 10 2 30 8 27 8 37 -2 43 -9 6 -11 21 -6 54 8 50 -1
91 -17 81 -6 -4 -8 1 -4 13 3 10 -1 28 -9 39 -8 10 -15 27 -15 37 0 9 -5 17
-11 17 -6 0 -9 6 -6 14 6 15 -11 36 -28 36 -5 0 -1 -7 9 -15 11 -8 15 -15 10
-15 -6 0 -23 13 -38 29 -16 16 -39 32 -53 35 -13 4 -21 11 -18 16 5 9 -32 15
-58 11 -21 -3 -55 -1 -81 5 -19 5 -27 3 -22 -4 4 -6 -2 -8 -14 -5 -12 3 -20 1
-18 -5 2 -5 0 -10 -5 -11 -18 -2 -67 -32 -67 -42 0 -6 -5 -7 -10 -4 -6 4 -9 3
-8 -2 4 -12 -28 -54 -35 -46 -4 3 -8 1 -8 -5 -3 -26 -4 -31 -11 -38 -5 -4 -8
-16 -8 -26 0 -10 -4 -18 -8 -18 -5 0 -6 -14 -4 -31 3 -18 1 -29 -5 -26 -5 3
-9 -26 -9 -71 0 -106 -24 -182 -74 -232 -61 -61 -109 -65 -170 -14 -47 40 -80
117 -86 199 -17 255 -99 360 -278 358 -65 -1 -126 -13 -126 -24 0 -5 -3 -8 -7
-8 -21 3 -33 -3 -33 -17 0 -10 -6 -14 -14 -11 -10 4 -13 1 -9 -9 3 -8 -1 -14
-11 -14 -8 0 -18 -11 -22 -25 -3 -14 -10 -25 -14 -25 -5 0 -6 -10 -2 -22 5
-21 4 -22 -13 -8 -17 14 -18 13 -12 -26 4 -22 4 -44 1 -47 -4 -3 -8 -28 -11
-54 -8 -98 -11 -119 -18 -148 -12 -55 -48 -115 -69 -115 -5 0 -14 -7 -20 -15
-6 -8 -22 -16 -36 -18 -36 -6 -92 11 -84 25 5 7 3 8 -5 3 -14 -8 -80 57 -82
81 -1 8 -2 20 -3 27 -1 6 -4 15 -9 18 -4 3 -8 37 -9 76 -2 62 2 78 28 129 40
75 65 93 150 106 38 5 77 14 87 20 13 6 24 5 35 -3 14 -11 15 -11 5 0 -9 11
-5 19 20 37 18 13 40 27 50 30 12 4 16 13 12 25 -5 14 -1 19 10 19 12 0 16 6
12 19 -2 10 4 29 14 42 14 19 19 43 19 109 1 60 4 79 11 65 6 -14 8 -3 5 38
-2 35 1 62 8 70 6 7 18 25 26 41 17 32 65 72 95 78 41 7 75 -5 112 -41z"/>
<path d="M810 1129 c0 -38 -2 -41 -23 -35 -48 12 -91 -55 -72 -113 9 -29 50
-55 72 -46 10 5 24 7 31 6 9 -1 12 27 12 114 0 70 -4 115 -10 115 -5 0 -10
-18 -10 -41z m-16 -55 c22 -8 22 -96 0 -115 -25 -21 -49 1 -52 50 -4 57 14 80
52 65z"/>
<path d="M1157 1055 c2 -123 16 -157 21 -51 3 65 14 82 47 70 10 -4 15 -25 17
-72 4 -84 22 -88 26 -6 2 48 -1 66 -16 84 -17 22 -23 23 -46 12 -26 -12 -26
-11 -26 33 0 29 -4 45 -12 45 -10 0 -12 -29 -11 -115z"/>
<path d="M1612 1055 c4 -154 22 -156 26 -2 2 101 0 117 -13 117 -13 0 -15 -16
-13 -115z"/>
<path d="M340 1036 c0 -126 18 -144 22 -23 l3 82 29 -77 c15 -43 33 -78 40
-78 6 0 26 37 43 83 l32 82 0 -82 c1 -45 6 -85 11 -88 6 -4 10 32 10 99 0 135
-14 139 -60 21 l-33 -86 -32 83 c-20 52 -38 84 -49 86 -14 3 -16 -10 -16 -102z"/>
<path d="M896 1125 c-32 -33 -17 -73 38 -100 29 -14 34 -61 7 -70 -11 -3 -29
-1 -40 4 -25 14 -31 14 -31 1 0 -20 52 -32 82 -19 53 22 46 85 -11 109 -57 23
-52 76 6 67 24 -4 33 -2 30 6 -6 19 -62 20 -81 2z"/>
<path d="M1800 1064 c0 -87 -12 -118 -41 -109 -23 8 -26 -10 -3 -19 24 -9 31
-8 48 10 12 12 16 37 16 105 0 53 -4 89 -10 89 -6 0 -10 -32 -10 -76z"/>
<path d="M2587 1109 c-30 -17 -16 -151 20 -192 11 -12 25 -40 31 -62 9 -33 9
-43 -4 -63 -13 -19 -22 -23 -45 -18 -41 8 -79 35 -79 56 0 24 -24 42 -44 34
-22 -9 -17 -48 7 -52 11 -2 35 -15 54 -28 41 -28 94 -31 117 -8 18 18 21 66 5
95 -8 17 -6 24 13 43 18 16 27 40 36 93 7 39 9 79 6 87 -7 17 -44 22 -44 6 0
-5 7 -7 15 -4 32 12 6 -149 -27 -169 -27 -17 -45 7 -58 78 -12 65 -8 101 9 90
5 -3 12 -1 15 4 9 15 -7 21 -27 10z"/>
<path d="M600 1082 c-34 -27 -34 -106 -1 -133 28 -23 49 -24 75 -4 25 19 14
30 -13 13 -26 -16 -54 -1 -59 31 -3 19 1 21 44 21 l47 0 -7 33 c-6 32 -29 57
-52 57 -6 0 -22 -8 -34 -18z m60 -23 c14 -25 9 -31 -30 -34 -22 -2 -30 2 -30
14 0 40 42 54 60 20z"/>
<path d="M1040 1080 c-43 -43 -16 -150 38 -150 24 0 59 26 49 36 -4 4 -13 2
-19 -4 -44 -44 -90 38 -57 100 8 16 17 19 40 14 30 -6 40 7 13 18 -27 10 -43
7 -64 -14z"/>
<path d="M1325 1075 c-17 -16 -25 -35 -25 -60 0 -25 8 -44 25 -60 29 -30 45
-31 76 -6 34 28 34 104 0 132 -31 25 -47 24 -76 -6z m64 -9 c17 -21 10 -97
-11 -109 -26 -17 -48 9 -48 57 0 58 31 86 59 52z"/>
<path d="M1479 1081 c-34 -28 -34 -104 0 -132 31 -25 47 -24 76 6 17 16 25 35
25 60 0 25 -8 44 -25 60 -29 30 -45 31 -76 6z m60 -15 c17 -21 10 -97 -11
-109 -26 -17 -48 9 -48 57 0 58 31 86 59 52z"/>
<path d="M1885 1075 c-17 -16 -25 -35 -25 -60 0 -25 8 -44 25 -60 29 -30 45
-31 76 -6 34 28 34 104 0 132 -31 25 -47 24 -76 -6z m64 -9 c17 -21 10 -97
-11 -109 -26 -17 -48 9 -48 57 0 58 31 86 59 52z"/>
<path d="M2216 1091 c-4 -6 -13 -8 -21 -4 -13 4 -15 -9 -15 -78 0 -96 17 -99
22 -4 3 54 5 60 26 63 13 2 21 9 19 15 -5 15 -24 20 -31 8z"/>
<path d="M2321 1091 c-8 -5 -20 -7 -28 -4 -11 4 -13 -9 -11 -73 2 -44 7 -78
12 -76 5 1 8 29 7 61 -2 53 0 61 20 72 33 17 51 -12 47 -78 -2 -31 1 -53 7
-53 6 0 11 29 13 64 4 81 -23 115 -67 87z"/>
<path d="M2452 1083 c-20 -17 -27 -49 -24 -100 1 -13 13 -30 27 -39 21 -14 30
-14 55 -4 17 7 30 16 30 21 0 12 -7 11 -30 -3 -25 -16 -54 -1 -58 31 -3 19 1
21 44 21 l47 0 -7 33 c-10 53 -47 71 -84 40z m57 -25 c5 -13 8 -23 7 -24 0 -1
-16 -4 -33 -7 -27 -5 -33 -3 -33 11 0 41 45 56 59 20z"/>
<path d="M2020 1026 c0 -73 18 -102 54 -91 12 4 29 7 39 6 15 0 17 10 17 75 0
89 -18 100 -22 13 -2 -47 -7 -65 -21 -73 -31 -19 -49 18 -41 81 5 45 4 53 -10
53 -13 0 -16 -12 -16 -64z"/>
</g>
</svg>
